<mxfile host="app.diagrams.net" agent="Mozilla/5.0 (Windows NT 10.0; Win64; x64) AppleWebKit/537.36 (KHTML, like Gecko) Chrome/126.0.0.0 YaBrowser/24.7.0.0 Safari/537.36" version="24.7.17">
  <diagram name="Page-1" id="9f46799a-70d6-7492-0946-bef42562c5a5">
    <mxGraphModel dx="1002" dy="575" grid="1" gridSize="10" guides="1" tooltips="1" connect="1" arrows="1" fold="1" page="1" pageScale="1" pageWidth="1100" pageHeight="850" background="none" math="0" shadow="0">
      <root>
        <mxCell id="0" />
        <mxCell id="1" parent="0" />
        <mxCell id="78961159f06e98e8-17" value="Group_Mullayarov" style="swimlane;html=1;fontStyle=1;align=center;verticalAlign=top;childLayout=stackLayout;horizontal=1;startSize=26;horizontalStack=0;resizeParent=1;resizeLast=0;collapsible=1;marginBottom=0;swimlaneFillColor=#ffffff;rounded=0;shadow=0;comic=0;labelBackgroundColor=none;strokeWidth=1;fillColor=none;fontFamily=Verdana;fontSize=12" parent="1" vertex="1">
          <mxGeometry x="500" width="330" height="200" as="geometry" />
        </mxCell>
        <mxCell id="78961159f06e98e8-21" value="vector &amp;lt;shared_ptr&amp;lt;Student_Mullayarov&amp;gt;&amp;gt; students;" style="text;html=1;strokeColor=none;fillColor=none;align=left;verticalAlign=top;spacingLeft=4;spacingRight=4;whiteSpace=wrap;overflow=hidden;rotatable=0;points=[[0,0.5],[1,0.5]];portConstraint=eastwest;" parent="78961159f06e98e8-17" vertex="1">
          <mxGeometry y="26" width="330" height="34" as="geometry" />
        </mxCell>
        <mxCell id="78961159f06e98e8-19" value="" style="line;html=1;strokeWidth=1;fillColor=none;align=left;verticalAlign=middle;spacingTop=-1;spacingLeft=3;spacingRight=3;rotatable=0;labelPosition=right;points=[];portConstraint=eastwest;" parent="78961159f06e98e8-17" vertex="1">
          <mxGeometry y="60" width="330" height="8" as="geometry" />
        </mxCell>
        <mxCell id="78961159f06e98e8-20" value="&lt;div&gt;&lt;span style=&quot;white-space: normal;&quot;&gt;&lt;span style=&quot;white-space:pre&quot;&gt;&#x9;&lt;/span&gt;void printFileGroup();&lt;/span&gt;&lt;/div&gt;&lt;div&gt;&lt;span style=&quot;white-space: normal;&quot;&gt;&lt;span style=&quot;white-space:pre&quot;&gt;&#x9;&lt;/span&gt;void readFileGroup();&lt;/span&gt;&lt;/div&gt;&lt;div&gt;&lt;span style=&quot;white-space: normal;&quot;&gt;&lt;span style=&quot;white-space:pre&quot;&gt;&#x9;&lt;/span&gt;void deleteGroup();&lt;/span&gt;&lt;/div&gt;&lt;div&gt;&lt;span style=&quot;white-space: normal;&quot;&gt;&lt;span style=&quot;white-space:pre&quot;&gt;&#x9;&lt;/span&gt;void printStudents();&lt;/span&gt;&lt;/div&gt;&lt;div&gt;&lt;span style=&quot;white-space: normal;&quot;&gt;&lt;span style=&quot;white-space:pre&quot;&gt;&#x9;&lt;/span&gt;void addStudents();&lt;/span&gt;&lt;/div&gt;&lt;div&gt;&lt;span style=&quot;white-space: normal;&quot;&gt;&lt;span style=&quot;white-space:pre&quot;&gt;&#x9;&lt;/span&gt;void addStudentsWithPosition();&lt;/span&gt;&lt;/div&gt;&lt;div&gt;&lt;div style=&quot;&quot;&gt;&lt;span style=&quot;white-space: normal;&quot;&gt;&lt;span style=&quot;white-space: pre;&quot;&gt;&#x9;&lt;/span&gt;template&amp;lt;class Archive&amp;gt;&lt;/span&gt;&lt;/div&gt;&lt;div style=&quot;&quot;&gt;&lt;span style=&quot;white-space: normal;&quot;&gt;&lt;span style=&quot;white-space: pre;&quot;&gt;&#x9;&lt;/span&gt;void serialize(Archive&amp;amp; ar, const unsigned int version)&lt;/span&gt;&lt;/div&gt;&lt;/div&gt;&lt;div&gt;&lt;span style=&quot;white-space: normal;&quot;&gt;&lt;br&gt;&lt;/span&gt;&lt;/div&gt;" style="text;html=1;strokeColor=none;fillColor=none;align=left;verticalAlign=top;spacingLeft=4;spacingRight=4;whiteSpace=wrap;overflow=hidden;rotatable=0;points=[[0,0.5],[1,0.5]];portConstraint=eastwest;" parent="78961159f06e98e8-17" vertex="1">
          <mxGeometry y="68" width="330" height="132" as="geometry" />
        </mxCell>
        <mxCell id="lvK2TQSOjIYvFxsR940x-1" value="Student_Mullayarov" style="swimlane;fontStyle=1;align=center;verticalAlign=top;childLayout=stackLayout;horizontal=1;startSize=26;horizontalStack=0;resizeParent=1;resizeParentMax=0;resizeLast=0;collapsible=1;marginBottom=0;whiteSpace=wrap;html=1;" parent="1" vertex="1">
          <mxGeometry x="515" y="240" width="300" height="200" as="geometry" />
        </mxCell>
        <mxCell id="lvK2TQSOjIYvFxsR940x-2" value="&lt;div&gt;&amp;nbsp; &amp;nbsp; string name,surname;&lt;/div&gt;&lt;div&gt;&amp;nbsp; &amp;nbsp; double mark;&lt;/div&gt;&lt;div&gt;&amp;nbsp; &amp;nbsp; int age;&lt;/div&gt;" style="text;strokeColor=none;fillColor=none;align=left;verticalAlign=top;spacingLeft=4;spacingRight=4;overflow=hidden;rotatable=0;points=[[0,0.5],[1,0.5]];portConstraint=eastwest;whiteSpace=wrap;html=1;" parent="lvK2TQSOjIYvFxsR940x-1" vertex="1">
          <mxGeometry y="26" width="300" height="54" as="geometry" />
        </mxCell>
        <mxCell id="lvK2TQSOjIYvFxsR940x-3" value="" style="line;strokeWidth=1;fillColor=none;align=left;verticalAlign=middle;spacingTop=-1;spacingLeft=3;spacingRight=3;rotatable=0;labelPosition=right;points=[];portConstraint=eastwest;strokeColor=inherit;" parent="lvK2TQSOjIYvFxsR940x-1" vertex="1">
          <mxGeometry y="80" width="300" height="20" as="geometry" />
        </mxCell>
        <mxCell id="lvK2TQSOjIYvFxsR940x-4" value="&lt;div&gt;&amp;nbsp; &amp;nbsp; virtual void showStudent(ostream&amp;amp; out);&lt;/div&gt;&lt;div&gt;&amp;nbsp; &amp;nbsp; virtual void createStudent(istream&amp;amp; in);&lt;/div&gt;&lt;div&gt;&amp;nbsp; &amp;nbsp; template&amp;lt;class Archive&amp;gt;&lt;/div&gt;&lt;div&gt;&amp;nbsp; &amp;nbsp; void serialize(Archive&amp;amp; ar, const unsigned int version)&lt;/div&gt;" style="text;strokeColor=none;fillColor=none;align=left;verticalAlign=top;spacingLeft=4;spacingRight=4;overflow=hidden;rotatable=0;points=[[0,0.5],[1,0.5]];portConstraint=eastwest;whiteSpace=wrap;html=1;" parent="lvK2TQSOjIYvFxsR940x-1" vertex="1">
          <mxGeometry y="100" width="300" height="100" as="geometry" />
        </mxCell>
        <mxCell id="lvK2TQSOjIYvFxsR940x-9" value="Headman_Mullayarov" style="swimlane;fontStyle=1;align=center;verticalAlign=top;childLayout=stackLayout;horizontal=1;startSize=26;horizontalStack=0;resizeParent=1;resizeParentMax=0;resizeLast=0;collapsible=1;marginBottom=0;whiteSpace=wrap;html=1;" parent="1" vertex="1">
          <mxGeometry x="515" y="570" width="300" height="160" as="geometry" />
        </mxCell>
        <mxCell id="lvK2TQSOjIYvFxsR940x-10" value="&lt;div&gt;&amp;nbsp; &amp;nbsp; int amount_subjects;&lt;/div&gt;&lt;div&gt;&amp;nbsp; &amp;nbsp; string position;&lt;/div&gt;" style="text;strokeColor=none;fillColor=none;align=left;verticalAlign=top;spacingLeft=4;spacingRight=4;overflow=hidden;rotatable=0;points=[[0,0.5],[1,0.5]];portConstraint=eastwest;whiteSpace=wrap;html=1;" parent="lvK2TQSOjIYvFxsR940x-9" vertex="1">
          <mxGeometry y="26" width="300" height="44" as="geometry" />
        </mxCell>
        <mxCell id="lvK2TQSOjIYvFxsR940x-11" value="" style="line;strokeWidth=1;fillColor=none;align=left;verticalAlign=middle;spacingTop=-1;spacingLeft=3;spacingRight=3;rotatable=0;labelPosition=right;points=[];portConstraint=eastwest;strokeColor=inherit;" parent="lvK2TQSOjIYvFxsR940x-9" vertex="1">
          <mxGeometry y="70" width="300" height="8" as="geometry" />
        </mxCell>
        <mxCell id="lvK2TQSOjIYvFxsR940x-12" value="&lt;div&gt;&lt;div&gt;&amp;nbsp; &amp;nbsp; void showStudent(ostream&amp;amp; out) override;&lt;/div&gt;&lt;div&gt;&amp;nbsp; &amp;nbsp; void createStudent(istream&amp;amp; in) override;&lt;/div&gt;&lt;/div&gt;&lt;div&gt;&lt;div&gt;template &amp;lt;class Archive&amp;gt;&lt;/div&gt;&lt;div&gt;void serialize(Archive&amp;amp; ar, const unsigned int version)&lt;/div&gt;&lt;/div&gt;" style="text;strokeColor=none;fillColor=none;align=left;verticalAlign=top;spacingLeft=4;spacingRight=4;overflow=hidden;rotatable=0;points=[[0,0.5],[1,0.5]];portConstraint=eastwest;whiteSpace=wrap;html=1;" parent="lvK2TQSOjIYvFxsR940x-9" vertex="1">
          <mxGeometry y="78" width="300" height="82" as="geometry" />
        </mxCell>
        <mxCell id="lvK2TQSOjIYvFxsR940x-20" value="" style="endArrow=diamondThin;endFill=1;endSize=24;html=1;rounded=0;exitX=0.5;exitY=0;exitDx=0;exitDy=0;entryX=0.503;entryY=1.004;entryDx=0;entryDy=0;entryPerimeter=0;" parent="1" source="lvK2TQSOjIYvFxsR940x-1" target="78961159f06e98e8-20" edge="1">
          <mxGeometry width="160" relative="1" as="geometry">
            <mxPoint x="550" y="340" as="sourcePoint" />
            <mxPoint x="710" y="340" as="targetPoint" />
          </mxGeometry>
        </mxCell>
        <mxCell id="lvK2TQSOjIYvFxsR940x-21" value="" style="endArrow=block;endSize=16;endFill=0;html=1;rounded=0;exitX=0.466;exitY=-0.015;exitDx=0;exitDy=0;exitPerimeter=0;entryX=0.477;entryY=0.968;entryDx=0;entryDy=0;entryPerimeter=0;" parent="1" source="lvK2TQSOjIYvFxsR940x-9" target="lvK2TQSOjIYvFxsR940x-4" edge="1">
          <mxGeometry width="160" relative="1" as="geometry">
            <mxPoint x="550" y="490" as="sourcePoint" />
            <mxPoint x="660" y="520" as="targetPoint" />
          </mxGeometry>
        </mxCell>
      </root>
    </mxGraphModel>
  </diagram>
</mxfile>
